<mxfile host="65bd71144e">
    <diagram name="Livewire Volt概念図" id="livewire-concepts">
        <mxGraphModel dx="827" dy="535" grid="1" gridSize="10" guides="1" tooltips="1" connect="1" arrows="1" fold="1" page="1" pageScale="1" pageWidth="1169" pageHeight="827" math="0" shadow="0">
            <root>
                <mxCell id="0"/>
                <mxCell id="1" parent="0"/>
                <mxCell id="title" value="Livewire Volt フォーム処理の概念図" style="text;html=1;strokeColor=none;fillColor=none;align=center;verticalAlign=middle;whiteSpace=wrap;rounded=0;fontSize=20;fontStyle=1;" vertex="1" parent="1">
                    <mxGeometry x="270" y="30" width="400" height="40" as="geometry"/>
                </mxCell>
                <mxCell id="state" value="state関数" style="rounded=1;whiteSpace=wrap;html=1;fillColor=#dae8fc;strokeColor=#6c8ebf;fontSize=16;fontStyle=1;" vertex="1" parent="1">
                    <mxGeometry x="100" y="120" width="150" height="60" as="geometry"/>
                </mxCell>
                <mxCell id="state-desc1" value="フォームの入力値を管理" style="rounded=1;whiteSpace=wrap;html=1;fillColor=#e1f5fe;strokeColor=#039be5;" vertex="1" parent="1">
                    <mxGeometry x="100" y="220" width="150" height="40" as="geometry"/>
                </mxCell>
                <mxCell id="state-desc2" value="コンポーネントの状態として保持" style="rounded=1;whiteSpace=wrap;html=1;fillColor=#e1f5fe;strokeColor=#039be5;" vertex="1" parent="1">
                    <mxGeometry x="100" y="280" width="150" height="40" as="geometry"/>
                </mxCell>
                <mxCell id="state-desc3" value="wire:modelと連携" style="rounded=1;whiteSpace=wrap;html=1;fillColor=#e1f5fe;strokeColor=#039be5;" vertex="1" parent="1">
                    <mxGeometry x="100" y="340" width="150" height="40" as="geometry"/>
                </mxCell>
                <mxCell id="wiremodel" value="wire:model" style="rounded=1;whiteSpace=wrap;html=1;fillColor=#d5e8d4;strokeColor=#82b366;fontSize=16;fontStyle=1;" vertex="1" parent="1">
                    <mxGeometry x="400" y="120" width="150" height="60" as="geometry"/>
                </mxCell>
                <mxCell id="model-desc1" value="入力値と状態を同期" style="rounded=1;whiteSpace=wrap;html=1;fillColor=#e8f5e8;strokeColor=#4caf50;" vertex="1" parent="1">
                    <mxGeometry x="400" y="220" width="150" height="40" as="geometry"/>
                </mxCell>
                <mxCell id="model-desc2" value="入力値を自動的に反映" style="rounded=1;whiteSpace=wrap;html=1;fillColor=#e8f5e8;strokeColor=#4caf50;" vertex="1" parent="1">
                    <mxGeometry x="400" y="280" width="150" height="40" as="geometry"/>
                </mxCell>
                <mxCell id="wiresubmit" value="wire:submit" style="rounded=1;whiteSpace=wrap;html=1;fillColor=#f8cecc;strokeColor=#b85450;fontSize=16;fontStyle=1;" vertex="1" parent="1">
                    <mxGeometry x="700" y="120" width="150" height="60" as="geometry"/>
                </mxCell>
                <mxCell id="submit-desc1" value="フォーム送信をハンドリング" style="rounded=1;whiteSpace=wrap;html=1;fillColor=#ffebee;strokeColor=#f44336;" vertex="1" parent="1">
                    <mxGeometry x="700" y="220" width="150" height="40" as="geometry"/>
                </mxCell>
                <mxCell id="submit-desc2" value="デフォルト動作を防止" style="rounded=1;whiteSpace=wrap;html=1;fillColor=#ffebee;strokeColor=#f44336;" vertex="1" parent="1">
                    <mxGeometry x="700" y="280" width="150" height="40" as="geometry"/>
                </mxCell>
                <mxCell id="submit-desc3" value="コンポーネント関数を呼び出し" style="rounded=1;whiteSpace=wrap;html=1;fillColor=#ffebee;strokeColor=#f44336;" vertex="1" parent="1">
                    <mxGeometry x="700" y="340" width="150" height="40" as="geometry"/>
                </mxCell>
                <mxCell id="process" value="フォーム送信処理" style="rounded=1;whiteSpace=wrap;html=1;fillColor=#fff2cc;strokeColor=#d6b656;fontSize=18;fontStyle=1;" parent="1" vertex="1">
                    <mxGeometry x="350" y="480" width="250" height="80" as="geometry"/>
                </mxCell>
                <mxCell id="arrow1" style="edgeStyle=orthogonalEdgeStyle;rounded=0;orthogonalLoop=1;jettySize=auto;html=1;strokeWidth=2;strokeColor=#1976d2;" edge="1" parent="1" source="state" target="state-desc1">
                    <mxGeometry relative="1" as="geometry"/>
                </mxCell>
                <mxCell id="arrow2" style="edgeStyle=orthogonalEdgeStyle;rounded=0;orthogonalLoop=1;jettySize=auto;html=1;strokeWidth=2;strokeColor=#1976d2;" edge="1" parent="1" source="state-desc1" target="state-desc2">
                    <mxGeometry relative="1" as="geometry"/>
                </mxCell>
                <mxCell id="arrow3" style="edgeStyle=orthogonalEdgeStyle;rounded=0;orthogonalLoop=1;jettySize=auto;html=1;strokeWidth=2;strokeColor=#1976d2;" edge="1" parent="1" source="state-desc2" target="state-desc3">
                    <mxGeometry relative="1" as="geometry"/>
                </mxCell>
                <mxCell id="arrow4" style="edgeStyle=orthogonalEdgeStyle;rounded=0;orthogonalLoop=1;jettySize=auto;html=1;strokeWidth=2;strokeColor=#4caf50;" edge="1" parent="1" source="wiremodel" target="model-desc1">
                    <mxGeometry relative="1" as="geometry"/>
                </mxCell>
                <mxCell id="arrow5" style="edgeStyle=orthogonalEdgeStyle;rounded=0;orthogonalLoop=1;jettySize=auto;html=1;strokeWidth=2;strokeColor=#4caf50;" edge="1" parent="1" source="model-desc1" target="model-desc2">
                    <mxGeometry relative="1" as="geometry"/>
                </mxCell>
                <mxCell id="arrow6" style="edgeStyle=orthogonalEdgeStyle;rounded=0;orthogonalLoop=1;jettySize=auto;html=1;strokeWidth=2;strokeColor=#4caf50;" edge="1" parent="1" source="model-desc2" target="model-desc3">
                    <mxGeometry relative="1" as="geometry"/>
                </mxCell>
                <mxCell id="arrow7" style="edgeStyle=orthogonalEdgeStyle;rounded=0;orthogonalLoop=1;jettySize=auto;html=1;strokeWidth=2;strokeColor=#f44336;" edge="1" parent="1" source="wiresubmit" target="submit-desc1">
                    <mxGeometry relative="1" as="geometry"/>
                </mxCell>
                <mxCell id="arrow8" style="edgeStyle=orthogonalEdgeStyle;rounded=0;orthogonalLoop=1;jettySize=auto;html=1;strokeWidth=2;strokeColor=#f44336;" edge="1" parent="1" source="submit-desc1" target="submit-desc2">
                    <mxGeometry relative="1" as="geometry"/>
                </mxCell>
                <mxCell id="arrow9" style="edgeStyle=orthogonalEdgeStyle;rounded=0;orthogonalLoop=1;jettySize=auto;html=1;strokeWidth=2;strokeColor=#f44336;" edge="1" parent="1" source="submit-desc2" target="submit-desc3">
                    <mxGeometry relative="1" as="geometry"/>
                </mxCell>
                <mxCell id="relation1" style="edgeStyle=orthogonalEdgeStyle;rounded=0;orthogonalLoop=1;jettySize=auto;html=1;strokeWidth=3;strokeColor=#9c27b0;strokeDasharray=8;endArrow=openThin;startArrow=openThin;" edge="1" parent="1" source="state" target="wiremodel">
                    <mxGeometry relative="1" as="geometry"/>
                </mxCell>
                <mxCell id="relation2" style="edgeStyle=orthogonalEdgeStyle;rounded=0;orthogonalLoop=1;jettySize=auto;html=1;strokeWidth=3;strokeColor=#9c27b0;strokeDasharray=8;endArrow=openThin;startArrow=openThin;" edge="1" parent="1" source="wiremodel" target="wiresubmit">
                    <mxGeometry relative="1" as="geometry"/>
                </mxCell>
                <mxCell id="toprocess1" style="edgeStyle=orthogonalEdgeStyle;rounded=0;orthogonalLoop=1;jettySize=auto;html=1;strokeWidth=4;strokeColor=#ff9800;" edge="1" parent="1" source="state-desc3" target="process">
                    <mxGeometry relative="1" as="geometry"/>
                </mxCell>
                <mxCell id="toprocess2" style="edgeStyle=orthogonalEdgeStyle;rounded=0;orthogonalLoop=1;jettySize=auto;html=1;strokeWidth=4;strokeColor=#ff9800;" edge="1" parent="1" source="model-desc3" target="process">
                    <mxGeometry relative="1" as="geometry"/>
                </mxCell>
                <mxCell id="toprocess3" style="edgeStyle=orthogonalEdgeStyle;rounded=0;orthogonalLoop=1;jettySize=auto;html=1;strokeWidth=4;strokeColor=#ff9800;" edge="1" parent="1" source="submit-desc3" target="process">
                    <mxGeometry relative="1" as="geometry"/>
                </mxCell>
                <mxCell id="label1" value="連携" style="text;html=1;strokeColor=none;fillColor=none;align=center;verticalAlign=middle;whiteSpace=wrap;rounded=0;fontSize=14;fontColor=#9c27b0;fontStyle=1;" vertex="1" parent="1">
                    <mxGeometry x="300" y="120" width="60" height="30" as="geometry"/>
                </mxCell>
                <mxCell id="label2" value="連携" style="text;html=1;strokeColor=none;fillColor=none;align=center;verticalAlign=middle;whiteSpace=wrap;rounded=0;fontSize=14;fontColor=#9c27b0;fontStyle=1;" vertex="1" parent="1">
                    <mxGeometry x="600" y="120" width="60" height="30" as="geometry"/>
                </mxCell>
                <mxCell id="label3" value="全てが集約される" style="text;html=1;strokeColor=none;fillColor=none;align=center;verticalAlign=middle;whiteSpace=wrap;rounded=0;fontSize=16;fontColor=#ff9800;fontStyle=1;" vertex="1" parent="1">
                    <mxGeometry x="470" y="410" width="190" height="30" as="geometry"/>
                </mxCell>
                <mxCell id="model-desc3" value="リアルタイムではない" style="rounded=1;whiteSpace=wrap;html=1;fillColor=#e8f5e8;strokeColor=#4caf50;" vertex="1" parent="1">
                    <mxGeometry x="400" y="340" width="150" height="40" as="geometry"/>
                </mxCell>
            </root>
        </mxGraphModel>
    </diagram>
</mxfile>
